<?xml version="1.0" standalone="no"?>
<!DOCTYPE svg PUBLIC "-//W3C//DTD SVG 20010904//EN"
 "http://www.w3.org/TR/2001/REC-SVG-20010904/DTD/svg10.dtd">
<svg version="1.0" xmlns="http://www.w3.org/2000/svg"
 width="287.000000pt" height="287.000000pt" viewBox="0 0 287.000000 287.000000"
 preserveAspectRatio="xMidYMid meet">
<metadata>
Created by potrace 1.11, written by Peter Selinger 2001-2013
</metadata>
<g transform="translate(0.000000,287.000000) scale(0.100000,-0.100000)"
fill="#000000" stroke="none">
<path d="M1400 2823 c-14 -21 -192 -260 -396 -533 -203 -272 -373 -500 -377
-506 -9 -15 11 -59 349 -787 35 -75 84 -181 108 -235 24 -53 68 -146 96 -207
29 -60 85 -182 125 -270 112 -246 127 -277 130 -273 2 2 37 77 78 168 41 91
125 275 187 410 61 135 146 319 187 410 41 91 99 217 128 280 29 63 92 201
140 307 l87 192 -28 39 c-16 22 -62 84 -103 138 -41 55 -113 151 -161 214 -77
103 -287 380 -308 405 -4 6 -54 72 -111 148 -56 75 -103 137 -104 137 -1 0
-13 -17 -27 -37z m266 -298 c375 -499 526 -706 520 -712 -4 -4 -357 105 -593
183 -73 24 -137 44 -143 44 -7 0 -10 -240 -10 -732 0 -402 -2 -729 -5 -727 -6
7 -15 2178 -8 2217 3 19 9 30 13 25 4 -4 106 -138 226 -298z m-406 -525 c-8
-5 -19 -10 -25 -10 -5 0 -3 5 5 10 8 5 20 10 25 10 6 0 3 -5 -5 -10z m-43 -16
c-3 -3 -12 -4 -19 -1 -8 3 -5 6 6 6 11 1 17 -2 13 -5z m-62 -19 c-16 -8 -37
-14 -45 -14 -8 0 1 7 20 14 46 18 64 17 25 0z m-250 -90 c-16 -8 -37 -14 -45
-14 -8 0 -1 6 15 14 17 7 37 13 45 13 8 0 2 -6 -15 -13z m1122 -171 c-3 -3
-12 -4 -19 -1 -8 3 -5 6 6 6 11 1 17 -2 13 -5z m-1102 -30 l30 -13 -30 6 c-16
3 -43 12 -60 19 l-30 13 30 -6 c17 -3 44 -12 60 -19z m1025 6 c-8 -5 -22 -9
-30 -9 -10 0 -8 3 5 9 27 12 43 12 25 0z m-780 -80 c18 -12 2 -12 -25 0 -13 6
-15 9 -5 9 8 0 22 -4 30 -9z m267 -1132 c-2 -18 -4 -6 -4 27 0 33 2 48 4 33 2
-15 2 -42 0 -60z m0 -120 c-3 -8 -6 -5 -6 6 -1 11 2 17 5 13 3 -3 4 -12 1 -19z"/>
</g>
</svg>
